<svg xmlns="http://www.w3.org/2000/svg" viewBox="0 0 317.88 222.49"><defs><style>.cls-1,.cls-2{fill:#a96722;}.cls-2{font-size:87.03px;}.cls-2,.cls-3{font-family:SitkaBanner, Sitka;}.cls-3{font-size:61.87px;fill:#a06d2d;}.cls-4{letter-spacing:0em;}.cls-5{letter-spacing:0em;}.cls-6{letter-spacing:-0.02em;}.cls-7{letter-spacing:-0.06em;}</style></defs><title>Asset 12</title><g id="Layer_2" data-name="Layer 2"><g id="Layer_1-2" data-name="Layer 1"><path class="cls-1" d="M109,73.19l7-1.48a3.41,3.41,0,0,0,1.84-1.16,3.1,3.1,0,0,0,.75-2.09V7.31a3.19,3.19,0,0,0-.75-2.14A3.47,3.47,0,0,0,115.94,4l-7-1.43V0h27.38A54.64,54.64,0,0,1,149.9,1.4a23.41,23.41,0,0,1,8.33,3.74,12.41,12.41,0,0,1,4.18,5.36,17.46,17.46,0,0,1,1.16,6.27,18.34,18.34,0,0,1-1.16,6.6,17.68,17.68,0,0,1-3.3,5.45A20.47,20.47,0,0,1,153.94,33a28.31,28.31,0,0,1-6.71,2.72,28.26,28.26,0,0,1,8.28,1.51,22.23,22.23,0,0,1,6.76,3.69,17.17,17.17,0,0,1,4.57,5.63A16.15,16.15,0,0,1,168.51,54a21.83,21.83,0,0,1-1.23,7.64,17.86,17.86,0,0,1-3.41,5.72,19.34,19.34,0,0,1-5.12,4A31.09,31.09,0,0,1,152.43,74a41.94,41.94,0,0,1-7.07,1.41,67.24,67.24,0,0,1-7.36.41H109Zm24.47-38.27a37,37,0,0,0,9.27-1,16.23,16.23,0,0,0,6.07-2.83,10.48,10.48,0,0,0,3.33-4.51,16.78,16.78,0,0,0,1-6A22.38,22.38,0,0,0,152,13a12.33,12.33,0,0,0-3.38-5.14A13.92,13.92,0,0,0,143,5,29.84,29.84,0,0,0,135.08,4h-6.65V34.92ZM140,71.71c5.87,0,10.26-1.21,13.2-3.63s4.4-6.38,4.4-11.88A24.17,24.17,0,0,0,156.42,48a12.18,12.18,0,0,0-3.74-5.39,15.8,15.8,0,0,0-6.46-3,41,41,0,0,0-9.33-.94h-8.46v33Z"/><text class="cls-2" transform="translate(138.74 97.56)">G</text><text class="cls-3" transform="translate(9.74 166.56)"><tspan class="cls-4">B</tspan><tspan class="cls-5" x="33" y="0">ash</tspan><tspan class="cls-6" x="113.36" y="0">a</tspan><tspan class="cls-7" x="138.77" y="0">’</tspan><tspan x="147.84" y="0">s Gl</tspan><tspan class="cls-4" x="237.26" y="0">o</tspan><tspan x="265.3" y="0">w</tspan></text><path class="cls-1" d="M3.58,222c33.06-24.89,76.52-34,116.72-23.92,21.59,5.43,41.88,15.25,63.74,19.7,22.37,4.55,45.31,2.79,67.64-1.1s45-9.45,62.4-24.62c2.42-2.12-1.12-5.64-3.54-3.54-16.2,14.13-37.65,19.31-58.3,23-23.55,4.22-47.78,6-71.26.45-21.39-5.08-41.41-14.69-62.86-19.56A143.4,143.4,0,0,0,1.06,217.68c-2.54,1.91-.05,6.26,2.52,4.32Z"/><path class="cls-1" d="M109,73.19l7-1.48a3.41,3.41,0,0,0,1.84-1.16,3.1,3.1,0,0,0,.75-2.09V7.31a3.19,3.19,0,0,0-.75-2.14A3.47,3.47,0,0,0,115.94,4l-7-1.43V0h27.38A54.64,54.64,0,0,1,149.9,1.4a23.41,23.41,0,0,1,8.33,3.74,12.41,12.41,0,0,1,4.18,5.36,17.46,17.46,0,0,1,1.16,6.27,18.34,18.34,0,0,1-1.16,6.6,17.68,17.68,0,0,1-3.3,5.45A20.47,20.47,0,0,1,153.94,33a28.31,28.31,0,0,1-6.71,2.72,28.26,28.26,0,0,1,8.28,1.51,22.23,22.23,0,0,1,6.76,3.69,17.17,17.17,0,0,1,4.57,5.63A16.15,16.15,0,0,1,168.51,54a21.83,21.83,0,0,1-1.23,7.64,17.86,17.86,0,0,1-3.41,5.72,19.34,19.34,0,0,1-5.12,4A31.09,31.09,0,0,1,152.43,74a41.94,41.94,0,0,1-7.07,1.41,67.24,67.24,0,0,1-7.36.41H109Zm24.47-38.27a37,37,0,0,0,9.27-1,16.23,16.23,0,0,0,6.07-2.83,10.48,10.48,0,0,0,3.33-4.51,16.78,16.78,0,0,0,1-6A22.38,22.38,0,0,0,152,13a12.33,12.33,0,0,0-3.38-5.14A13.92,13.92,0,0,0,143,5,29.84,29.84,0,0,0,135.08,4h-6.65V34.92ZM140,71.71c5.87,0,10.26-1.21,13.2-3.63s4.4-6.38,4.4-11.88A24.17,24.17,0,0,0,156.42,48a12.18,12.18,0,0,0-3.74-5.39,15.8,15.8,0,0,0-6.46-3,41,41,0,0,0-9.33-.94h-8.46v33Z"/><text class="cls-2" transform="translate(138.74 97.56)">G</text><text class="cls-3" transform="translate(9.74 166.56)"><tspan class="cls-4">B</tspan><tspan class="cls-5" x="33" y="0">ash</tspan><tspan class="cls-6" x="113.36" y="0">a</tspan><tspan class="cls-7" x="138.77" y="0">’</tspan><tspan x="147.84" y="0">s Gl</tspan><tspan class="cls-4" x="237.26" y="0">o</tspan><tspan x="265.3" y="0">w</tspan></text><path class="cls-1" d="M3.58,222c33.06-24.89,76.52-34,116.72-23.92,21.59,5.43,41.88,15.25,63.74,19.7,22.37,4.55,45.31,2.79,67.64-1.1s45-9.45,62.4-24.62c2.42-2.12-1.12-5.64-3.54-3.54-16.2,14.13-37.65,19.31-58.3,23-23.55,4.22-47.78,6-71.26.45-21.39-5.08-41.41-14.69-62.86-19.56A143.4,143.4,0,0,0,1.06,217.68c-2.54,1.91-.05,6.26,2.52,4.32Z"/></g></g></svg>